<?xml version="1.0" encoding="utf-8"?>
<!-- Generator: Adobe Illustrator 16.0.4, SVG Export Plug-In . SVG Version: 6.00 Build 0)  -->
<!DOCTYPE svg PUBLIC "-//W3C//DTD SVG 1.1//EN" "http://www.w3.org/Graphics/SVG/1.1/DTD/svg11.dtd">
<svg version="1.1" id="Layer_1" xmlns="http://www.w3.org/2000/svg" xmlns:xlink="http://www.w3.org/1999/xlink" x="0px" y="0px"
	 width="78.102px" height="79.122px" viewBox="0 0 78.102 79.122" enable-background="new 0 0 78.102 79.122" xml:space="preserve">
<path fill-rule="evenodd" clip-rule="evenodd" fill="none" d="M39.844,19.141c-2.343,2.529-2.938,5.425-2.387,8.32
	c0.562,2.953-0.766,3.055-2.944,2.672C25.022,28.467,15.53,26.807,6.03,25.19c-2.395-0.408-3.487-1.792-3.385-4.128
	c0.218-4.992,0.933-9.92,2.063-14.789c0.786-3.382,2.917-4.426,6.271-4.149C27.228,3.462,43.492,4.608,59.74,5.963
	c9.189,0.767,16.598,9.568,15.93,18.606c-0.721,9.743-8.708,17.165-18.221,16.93c-9.751-0.242-17.503-7.914-17.602-17.429
	C39.83,22.427,39.844,20.783,39.844,19.141z M46.856,23.883c0.08,6.209,5.142,11.155,11.215,10.959
	c5.792-0.188,10.67-5.218,10.733-11.067c0.065-6.121-4.883-11.041-11.095-11.029C51.378,12.756,46.774,17.481,46.856,23.883z"/>
<path fill-rule="evenodd" clip-rule="evenodd" fill="none" d="M60.996,44.156c-3.73,10.239-5.479,19.966-4.932,30.027
	c0.088,1.609-0.58,2.722-2.224,2.574c-2.799-0.252-5.602-0.642-8.351-1.221c-2.042-0.43-2.367-2.344-1.04-3.352
	c4.167-3.166,1.581-7.963,3.235-11.82c1.986-4.63,0.521-9.859-0.024-14.803c-0.263-2.383,0.355-3.229,2.634-2.205
	C53.42,44.764,56.656,45.057,60.996,44.156z"/>
<path fill-rule="evenodd" clip-rule="evenodd" fill="none" d="M57.628,15.943c4.349-0.06,7.91,3.522,7.831,7.876
	c-0.077,4.227-3.378,7.458-7.646,7.485c-4.374,0.027-7.993-3.555-7.899-7.815C50.002,19.44,53.521,15.999,57.628,15.943z"/>
<path fill-rule="evenodd" clip-rule="evenodd" fill="#EF832E" d="M14.417,0.079c14.78,1.054,29.572,1.964,44.338,3.196
	c9.748,0.814,17.315,7.613,18.97,16.436c1.72,9.173-2.526,17.62-11.335,22.281c-1.543,0.816-2.359,1.804-3.067,3.465
	c-3.8,8.927-5.199,18.222-4.521,27.807c0.315,4.469-1.481,6.176-5.733,5.812c-1.328-0.113-2.669-0.112-3.986-0.297
	c-8.302-1.165-8.377-1.971-5.727-9.8c1.703-5.029,1.793-10.605,2.58-15.94c0.044-0.302-0.054-0.747-0.26-0.945
	c-3.76-3.618-5.675-7.195-0.34-11.182c0.655-0.489-6.257-7.735-7.708-7.971c-10.333-1.677-20.67-3.323-30.992-5.068
	c-5.324-0.9-7.072-3.257-6.549-8.687c0.271-2.812,0.699-5.613,1.148-8.404C2.907,0.404,3.809-0.313,14.417,0.079z M39.844,19.141
	c0,1.643-0.015,3.286,0.002,4.93c0.099,9.515,7.851,17.187,17.602,17.429c9.513,0.235,17.5-7.187,18.221-16.93
	c0.668-9.038-6.741-17.84-15.93-18.606C43.492,4.608,27.228,3.462,10.979,2.124C7.625,1.848,5.495,2.892,4.708,6.273
	c-1.131,4.869-1.846,9.797-2.063,14.789c-0.102,2.336,0.991,3.72,3.385,4.128c9.5,1.616,18.992,3.276,28.483,4.942
	c2.178,0.383,3.505,0.281,2.944-2.672C36.906,24.565,37.501,21.67,39.844,19.141z M60.996,44.156
	c-4.34,0.9-7.575,0.607-10.701-0.799c-2.278-1.024-2.896-0.178-2.634,2.205c0.545,4.943,2.01,10.173,0.024,14.803
	c-1.655,3.857,0.931,8.654-3.235,11.82c-1.327,1.008-1.002,2.922,1.04,3.352c2.749,0.579,5.551,0.969,8.351,1.221
	c1.644,0.147,2.312-0.965,2.224-2.574C55.517,64.122,57.265,54.396,60.996,44.156z"/>
<path fill-rule="evenodd" clip-rule="evenodd" fill="#EF832E" d="M46.856,23.883c-0.082-6.401,4.522-11.127,10.854-11.138
	c6.211-0.012,11.16,4.908,11.095,11.029c-0.063,5.85-4.941,10.88-10.733,11.067C51.998,35.038,46.936,30.092,46.856,23.883z
	 M57.628,15.943c-4.107,0.056-7.625,3.497-7.715,7.546c-0.094,4.261,3.525,7.843,7.899,7.815c4.269-0.027,7.569-3.259,7.646-7.485
	C65.538,19.466,61.977,15.884,57.628,15.943z"/>
</svg>
