<?xml version="1.0" encoding="utf-8"?>
<!-- Generator: Adobe Illustrator 16.0.4, SVG Export Plug-In . SVG Version: 6.00 Build 0)  -->
<!DOCTYPE svg PUBLIC "-//W3C//DTD SVG 1.1//EN" "http://www.w3.org/Graphics/SVG/1.1/DTD/svg11.dtd">
<svg version="1.1" id="Layer_1" xmlns="http://www.w3.org/2000/svg" xmlns:xlink="http://www.w3.org/1999/xlink" x="0px" y="0px"
	 width="64.567px" height="75.243px" viewBox="0 0 64.567 75.243" enable-background="new 0 0 64.567 75.243" xml:space="preserve">
<path fill-rule="evenodd" clip-rule="evenodd" fill="#EF832E" d="M42.231,48.482c5.476-5.042,8.42-2.335,11.324,1.679
	c2.992,4.132,6.261,8.062,9.424,12.069c3.383,4.284,0.773,7.075-2.367,9.799c-3.373,2.927-5.806,1.644-8.129-1.491
	c-2.909-3.926-6.013-7.71-10.366-11.494c0,3.287-0.019,6.574,0.005,9.86c0.028,4.032-1.923,6.044-5.982,6.036
	c-9.812-0.017-19.624-0.013-29.437-0.002c-4.066,0.005-5.974-2.04-5.961-6.063c0.023-7.768-0.26-15.548,0.108-23.299
	c0.216-4.523,4.188-7.911,4.792-12.552c0.162-1.251,2.104-1.818,3.6-1.87c3.389-0.116,7.004,0.715,8.729-3.708
	c1.845-4.73,1.647-9.137-0.934-13.482c-0.829-1.396-1.875-2.754-2.306-4.277c-1.182-4.182,2.067-8.846,6.739-9.016
	c8.982-0.327,17.988-0.33,26.976-0.115c3.995,0.097,7.352,1.988,7.163,6.669c-0.182,4.478-3.191,6.348-7.43,6.393
	c-4.701,0.051-9.416,0.238-14.101-0.045c-4.465-0.272-6.922,2.381-8.612,5.668c-1.717,3.338-0.583,6.72,1.349,9.855
	c1.503,2.444,3.811,2.058,5.996,1.986c4.488-0.146,7.193,1.589,6.786,6.409C39.273,41.344,44.148,43.582,42.231,48.482z
	 M21.112,71.574c4.7,0,9.403-0.095,14.1,0.037c2.625,0.074,3.627-0.889,3.583-3.55c-0.118-7.15-0.115-14.306-0.002-21.456
	c0.041-2.624-0.887-3.615-3.55-3.584c-9.194,0.105-18.393,0.102-27.588,0.002c-2.621-0.027-3.627,0.888-3.584,3.551
	c0.118,7.15,0.113,14.306,0.001,21.457c-0.041,2.623,0.889,3.664,3.553,3.58C12.116,71.472,16.615,71.573,21.112,71.574z
	 M62.221,66.775c-1.032-1.542-1.534-2.396-2.137-3.172c-3.231-4.159-6.553-8.248-9.705-12.465c-1.545-2.066-2.869-2.424-4.902-0.577
	c-1.771,1.608-2.494,2.92-0.74,5.052c3.474,4.22,6.759,8.598,10.155,12.883c0.869,1.097,1.775,2.416,3.464,1.205
	C59.657,68.766,60.915,67.768,62.221,66.775z M39.379,10.325c0-0.016,0-0.031,0-0.045c3.264,0,6.529,0.034,9.793-0.014
	c1.877-0.027,3.179-0.992,3.295-2.91c0.135-2.215-1.145-3.464-3.324-3.485c-6.325-0.066-12.65-0.006-18.976-0.054
	c-2.085-0.018-2.861,0.938-2.862,2.962c0,2.063,0.276,3.633,2.894,3.564C33.256,10.265,36.318,10.325,39.379,10.325z M22.174,38.435
	c3.85,0,7.699,0.018,11.549-0.011c1.273-0.01,2.446-0.263,2.469-1.931c0.022-1.671-1.125-1.979-2.416-1.982
	c-7.699-0.022-15.399-0.022-23.099-0.011c-1.487,0.001-2.93,0.16-2.729,2.24c0.164,1.689,1.49,1.673,2.677,1.685
	C14.474,38.464,18.324,38.438,22.174,38.435z"/>
<path fill-rule="evenodd" clip-rule="evenodd" fill="none" d="M21.112,71.574c-4.497-0.001-8.996-0.103-13.487,0.037
	c-2.664,0.084-3.594-0.957-3.553-3.58c0.112-7.151,0.117-14.307-0.001-21.457c-0.043-2.663,0.963-3.578,3.584-3.551
	c9.195,0.1,18.394,0.104,27.588-0.002c2.663-0.031,3.591,0.96,3.55,3.584c-0.113,7.15-0.116,14.306,0.002,21.456
	c0.044,2.661-0.958,3.624-3.583,3.55C30.516,71.479,25.812,71.574,21.112,71.574z M32.689,64.767
	c0.833-5.443,1.421-10.9-0.401-16.207C31.484,54.004,30.653,59.426,32.689,64.767z"/>
<path fill-rule="evenodd" clip-rule="evenodd" fill="none" d="M62.221,66.775c-1.306,0.992-2.563,1.99-3.865,2.926
	c-1.688,1.211-2.595-0.108-3.464-1.205c-3.396-4.285-6.682-8.663-10.155-12.883c-1.754-2.132-1.031-3.443,0.74-5.052
	c2.033-1.847,3.357-1.489,4.902,0.577c3.152,4.217,6.474,8.306,9.705,12.465C60.687,64.38,61.188,65.233,62.221,66.775z"/>
<path fill-rule="evenodd" clip-rule="evenodd" fill="none" d="M39.379,10.325c-3.061,0-6.123-0.061-9.181,0.019
	c-2.617,0.068-2.894-1.501-2.894-3.564c0.001-2.023,0.777-2.979,2.862-2.962c6.325,0.048,12.65-0.013,18.976,0.054
	c2.18,0.021,3.459,1.271,3.324,3.485c-0.116,1.918-1.418,2.883-3.295,2.91c-3.264,0.048-6.529,0.014-9.793,0.014
	C39.379,10.294,39.379,10.31,39.379,10.325z"/>
<path fill-rule="evenodd" clip-rule="evenodd" fill="none" d="M22.174,38.437c-3.85,0.002-7.7,0.027-11.55-0.012
	c-1.187-0.012-2.513,0.005-2.677-1.685c-0.2-2.08,1.242-2.239,2.729-2.24c7.699-0.012,15.399-0.012,23.099,0.011
	c1.291,0.004,2.438,0.312,2.416,1.982c-0.022,1.668-1.195,1.921-2.469,1.931C29.873,38.452,26.023,38.435,22.174,38.437z"/>
<path fill-rule="evenodd" clip-rule="evenodd" fill="#EF832E" d="M32.689,64.767c-2.036-5.341-1.205-10.763-0.401-16.207
	C34.11,53.866,33.522,59.323,32.689,64.767z"/>
</svg>
