<?xml version="1.0" encoding="utf-8"?>
<!-- Generator: Adobe Illustrator 16.0.4, SVG Export Plug-In . SVG Version: 6.00 Build 0)  -->
<!DOCTYPE svg PUBLIC "-//W3C//DTD SVG 1.1//EN" "http://www.w3.org/Graphics/SVG/1.1/DTD/svg11.dtd">
<svg version="1.1" id="Layer_1" xmlns="http://www.w3.org/2000/svg" xmlns:xlink="http://www.w3.org/1999/xlink" x="0px" y="0px"
	 width="66.88px" height="75.243px" viewBox="0 0 66.88 75.243" enable-background="new 0 0 66.88 75.243" xml:space="preserve">
<path fill-rule="evenodd" clip-rule="evenodd" fill="#EF832E" d="M29.661,26.082c-1.723,5.322,2.785,7.447,5.618,9.979
	c8.851,7.906,18.027,15.445,27.109,23.088c3.248,2.732,5.403,5.908,4.113,10.326c-1.933,6.619-10.221,8.119-15.215,2.439
	c-7.836-8.91-15.382-18.08-22.824-27.322c-3.42-4.248-6.717-7.248-12.946-6.947C7.258,38.043,0.374,29.49,0.101,19.449
	C-0.071,13.15,1.948,7.314,5.655,2.203c0.974-1.344,2.349-2.889,4.397-2.223c1.585,0.516,2.353,1.891,2.494,3.559
	c0.388,4.578,3.001,6.76,7.355,8.051C26.97,13.689,30.041,18.691,29.661,26.082z M9.301,3.666
	C1.683,13.779,1.538,24.127,8.176,30.98c3.324,3.43,7.248,4.918,11.9,2.883c3.991-1.748,6.114-4.85,6.146-9.254
	c0.037-4.992-2.317-8.619-7.082-9.852C13.699,13.348,10.075,10.596,9.301,3.666z M58.146,72.273c2.199-0.016,3.867-1.027,4.7-3.016
	c1.185-2.83,0.14-5.055-2.132-6.979c-8.41-7.121-16.746-14.33-25.16-21.447c-1.229-1.041-2.548-2.93-4.425-0.904
	c-1.612,1.742,0.18,2.826,1.05,3.889c7.117,8.701,14.293,17.354,21.473,26.006C54.807,71.213,56.199,72.266,58.146,72.273z"/>
<path fill-rule="evenodd" clip-rule="evenodd" fill="none" d="M10.736,5.682c0.729,6.518,4.138,9.105,9.256,10.432
	c4.482,1.16,6.696,4.572,6.662,9.27c-0.03,4.143-2.028,7.061-5.782,8.703c-4.376,1.916-8.067,0.516-11.194-2.711
	C3.434,24.928,3.57,15.193,10.736,5.682z"/>
<path fill-rule="evenodd" clip-rule="evenodd" fill="none" d="M56.677,70.213c-1.826-0.004-3.136-0.992-4.222-2.301
	c-6.753-8.139-13.504-16.277-20.199-24.463c-0.818-1-2.504-2.02-0.988-3.658c1.766-1.906,3.006-0.129,4.163,0.85
	c7.914,6.695,15.756,13.477,23.667,20.176c2.137,1.809,3.12,3.902,2.005,6.564C60.319,69.25,58.75,70.203,56.677,70.213z"/>
</svg>
