<?xml version="1.0" encoding="utf-8"?>
<!-- Generator: Adobe Illustrator 16.0.4, SVG Export Plug-In . SVG Version: 6.00 Build 0)  -->
<!DOCTYPE svg PUBLIC "-//W3C//DTD SVG 1.1//EN" "http://www.w3.org/Graphics/SVG/1.1/DTD/svg11.dtd">
<svg version="1.1" id="Layer_1" xmlns="http://www.w3.org/2000/svg" xmlns:xlink="http://www.w3.org/1999/xlink" x="0px" y="0px"
	 width="65.46px" height="75.243px" viewBox="0 0 65.46 75.243" enable-background="new 0 0 65.46 75.243" xml:space="preserve">
<g>
	<polygon fill="#EF832E" points="49.559,0.619 46.815,1.934 31.614,25.338 37.82,34.709 	"/>
	<path fill="#EF832E" d="M21.617,41.833l-5.527,8.166c-0.977-0.246-1.993-0.392-3.044-0.392c-6.878,0-12.472,5.596-12.472,12.474
		c0,6.877,5.595,12.471,12.472,12.471c6.876,0,12.471-5.594,12.471-12.471c0-3.223-1.238-6.155-3.251-8.37l5.375-6.144
		L21.617,41.833z M13.045,69.134c-3.896,0-7.055-3.159-7.055-7.054c0-3.898,3.16-7.057,7.055-7.057S20.1,58.182,20.1,62.08
		C20.1,65.975,16.942,69.134,13.045,69.134"/>
	<path fill="#EF832E" d="M59.607,72.52c-0.768-0.396-2.277-2.602-2.277-2.602c1.736-2.144,2.784-4.87,2.784-7.838
		c0-6.878-5.594-12.474-12.473-12.474c-1.279,0-2.51,0.192-3.671,0.553L12.934,2.146L9.603,0.168L22.922,38.77l15.891,14.507
		c-2.25,2.257-3.645,5.37-3.645,8.803c0,6.877,5.595,12.473,12.473,12.473c2.821,0,5.418-0.953,7.512-2.541
		c0,0,1.371,1.999,2.081,2.315c1.779,0.792,7.788,0,7.788,0v-1.241C65.023,73.086,60.813,73.147,59.607,72.52 M29.13,38.47
		c-1.142,0-2.069-0.927-2.069-2.069c0-1.143,0.927-2.069,2.069-2.069c1.143,0,2.069,0.928,2.069,2.069
		C31.2,37.543,30.273,38.47,29.13,38.47 M47.641,69.134c-3.897,0-7.055-3.159-7.055-7.054c0-3.898,3.157-7.057,7.055-7.057
		c3.897,0,7.055,3.159,7.055,7.057C54.696,65.975,51.537,69.134,47.641,69.134"/>
</g>
</svg>
