<?xml version="1.0" encoding="utf-8"?>
<!-- Generator: Adobe Illustrator 16.0.0, SVG Export Plug-In . SVG Version: 6.00 Build 0)  -->
<!DOCTYPE svg PUBLIC "-//W3C//DTD SVG 1.1//EN" "http://www.w3.org/Graphics/SVG/1.1/DTD/svg11.dtd">
<svg version="1.1" id="Layer_1" xmlns="http://www.w3.org/2000/svg" xmlns:xlink="http://www.w3.org/1999/xlink" x="0px" y="0px"
	 width="150px" height="216px" viewBox="-8.25 14.319 150 216" enable-background="new -8.25 14.319 150 216" xml:space="preserve">
<circle fill="#FFFFFF" cx="66.75" cy="90" r="68"/>
<path fill="#EF832E" d="M94.333,47.029c-1.661-5.444-7.421-8.511-12.864-6.85c-5.443,1.658-8.51,7.418-6.85,12.862
	c0.543,1.786,1.531,3.318,2.805,4.511c0.779,0.732,1.737,1.803,1.268,5.844c-0.24,2.062-2.582,8.399-2.582,8.399
	c-1.137,2.936-2.135,5.466-2.135,5.466s-1.325,3.622-1.719,4.65c-1.264,3.283-3.626,4.767-3.626,4.767l-5.455,3.552l-13.55,56.616
	c-0.017,0.062-0.518,2.193-0.56,2.64c-0.086,0.916,0.518,0.99,0.518,0.99L71.23,92.44l7.889-20.644
	c1.596-4.298,2.893-7.693,3.166-8.139c0.808-1.32,1.935-2.744,5.195-3.766C92.912,58.191,95.992,52.475,94.333,47.029z
	 M68.816,93.98c-0.378,1.236-1.686,1.934-2.923,1.557s-1.935-1.687-1.557-2.924c0.376-1.237,1.686-1.936,2.923-1.558
	C68.498,91.434,69.194,92.741,68.816,93.98z M86.764,57.541c-4.146,1.263-8.529-1.071-9.795-5.216
	c-1.263-4.146,1.072-8.531,5.217-9.795c4.146-1.264,8.531,1.073,9.797,5.217C93.245,51.891,90.909,56.278,86.764,57.541z
	 M82.808,149.479c-0.033-0.447-0.497-2.584-0.511-2.649L70.926,95.263l-4.175,11.189l15.521,44.007
	C82.272,150.459,82.877,150.396,82.808,149.479z M51.932,40.177c-5.443-1.661-11.201,1.408-12.862,6.853
	c-1.66,5.443,1.41,11.192,6.853,12.862c4.044,1.241,4.387,2.445,5.193,3.765c0.81,1.318,10.556,28.388,10.556,28.388l0.21,0.595
	l0.681-2.843l3.679-2.395l-1.918-1.301c0,0-2.283-1.297-3.486-4.603c-0.377-1.035-1.636-4.681-1.636-4.681
	s-4.019-9.382-4.488-13.422c-0.472-4.041,0.486-5.111,1.268-5.844c1.271-1.192,2.261-2.723,2.804-4.511
	C60.444,47.598,57.377,41.838,51.932,40.177z M51.216,42.531c4.146,1.263,6.479,5.648,5.217,9.794
	c-1.264,4.146-5.65,6.481-9.795,5.217c-4.146-1.264-6.481-5.651-5.217-9.795C42.685,43.603,47.07,41.266,51.216,42.531z
	 M64.722,93.471c0.087,0.947,0.884,1.689,1.854,1.689c0.971,0.001,1.768-0.74,1.856-1.688L64.722,93.471z M68.432,93.122
	c-0.087-0.947-0.884-1.688-1.854-1.69c-0.971-0.001-1.769,0.741-1.856,1.688L68.432,93.122z M66.75,14.319c41.422,0,75,29.959,75,75
	c0,43.988-37.845,62.869-58,91c-16.471,22.988-17,40-17,40s-0.13-17.1-17-40c-20.729-28.139-58-45.717-58-91
	C-8.25,44.276,25.328,14.319,66.75,14.319z"/>
<ellipse opacity="0.2" cx="66.75" cy="226.159" rx="15.25" ry="4.159"/>
</svg>
